<svg xmlns="http://www.w3.org/2000/svg" fill-rule="evenodd" stroke-linejoin="round" stroke-miterlimit="1.41421" clip-rule="evenodd" viewBox="0 0 983 100">
  <path fill="#55a193" fill-rule="nonzero" d="M531.61887192 98.82234138c-.3140951.3140951-.8048687.58892832-1.4723208.82449964-.6674521.23557133-1.39379702.353357-2.17903478.353357h-17.3144926c-1.88457063 0-3.25873671-.43188077-4.12249825-1.2956423-.86376153-.86376154-1.2956423-2.23792762-1.2956423-4.12249825v-31.0954153c0-2.43423705.37298793-5.20220015 1.1189638-8.3038893.74597588-3.10168916 1.94346346-6.77267569 3.59246276-11.01295959l10.1295671-26.61956006c.23557133-.70671399.53003549-1.31527325.88339248-1.8256778.353357-.51040454.72634493-.96191625 1.11896381-1.35453513l.11778566-.11778567 15.076565-12.60306604c.6281902-.54966644 1.37416608-.96191626 2.23792761-1.23674948.86376154-.27483321 1.84530874-.41224982 2.9446416-.41224982h31.68434362c1.80604685 0 3.27836765.37298794 4.4169624 1.1189638 1.13859475.74597588 1.98272534 1.90420158 2.53239177 3.4746771l10.24735277 26.73734572c1.6489993 4.2402839 2.84648688 7.91127044 3.59246275 11.01295959.74597588 3.10168915 1.11896381 5.86965225 1.11896381 8.30388931v31.0954153c0 1.02080908-.1374166 1.88457062-.41224982 2.5912846-.27483322.70671399-.68708304 1.2956423-1.23674947 1.76678496l-15.31213632 12.72085172c-.3140951.3140951-.8048687.58892832-1.4723208.82449964-.6674521.23557133-1.39379703.353357-2.17903479.353357h-17.78563526c-1.9630944 0-3.41578426-.45151172-4.35806957-1.35453514-.94228531-.90302342-1.41342797-2.25755856-1.41342797-4.0636054V79.26992114h-3.29799859v2.47349895c0 1.02080908-.1374166 1.88457062-.41224982 2.5912846-.27483322.70671399-.68708304 1.2956423-1.23674948 1.76678496l-15.31213632 12.72085172zm115.77921794-12.72085172l-15.31213632 12.72085172c-.3140951.3140951-.8048687.58892832-1.4723208.82449964-.6674521.23557133-1.39379703.353357-2.17903479.353357h-18.25677792c-1.88457062 0-3.2587367-.43188077-4.12249824-1.2956423-.86376153-.86376154-1.2956423-2.23792762-1.2956423-4.12249825V18.2569472c0-1.02080909.1374166-1.88457062.41224982-2.5912846.27483322-.706714.68708304-1.29564231 1.23674947-1.76678497l15.19435066-12.83863737c.39261888-.3140951.92265437-.56929738 1.59010646-.76560682.6674521-.19630944 1.39379703-.29446416 2.17903479-.29446416h18.25677792c1.88457062 0 3.2587367.43188077 4.12249824 1.2956423.86376153.86376154 1.2956423 2.23792762 1.2956423 4.12249824v24.38163245h2.12014195V18.2569472c0-1.02080909.13741661-1.88457062.41224983-2.5912846.27483321-.706714.68708304-1.29564231 1.23674947-1.76678497l15.19435066-12.83863737c.39261888-.3140951.92265436-.56929738 1.59010646-.76560682.6674521-.19630944 1.39379702-.29446416 2.17903478-.29446416h18.25677792c1.88457063 0 3.2587367.43188077 4.12249824 1.2956423.86376154.86376154 1.2956423 2.23792762 1.2956423 4.12249824V81.7434201c0 1.02080908-.1374166 1.88457062-.41224982 2.5912846-.27483321.70671399-.68708304 1.2956423-1.23674947 1.76678496l-15.31213632 12.72085172c-.3140951.3140951-.8048687.58892832-1.4723208.82449964-.6674521.23557133-1.39379702.353357-2.17903478.353357h-18.25677792c-1.88457063 0-3.2587367-.43188077-4.12249824-1.2956423-.86376154-.86376154-1.2956423-2.23792762-1.2956423-4.12249825V69.6114967h-2.12014196v12.1319234c0 1.02080908-.1374166 1.88457062-.41224982 2.5912846-.27483322.70671399-.68708304 1.2956423-1.23674947 1.76678496zm118.61016364 13.89870836h-54.6525481c-1.88457062 0-3.2587367-.43188077-4.12249823-1.2956423-.86376154-.86376154-1.2956423-2.23792762-1.2956423-4.12249825V18.2569472c0-1.02080909.1374166-1.88457062.41224982-2.5912846.27483321-.706714.68708304-1.29564231 1.23674947-1.76678497l15.19435066-12.83863737c.39261888-.3140951.92265436-.56929738 1.59010646-.76560682.6674521-.19630944 1.39379702-.29446416 2.17903478-.29446416h54.6525481c1.88457062 0 3.2587367.43188077 4.12249824 1.2956423.86376154.86376154 1.2956423 2.23792762 1.2956423 4.12249824v13.7809227c0 1.02080908-.1374166 1.88457062-.41224982 2.5912846-.27483322.70671398-.68708304 1.2956423-1.23674947 1.76678496l-10.1295671 8.36278214c.78523775.39261888 1.35453513.9815472 1.70789212 1.76678496.353357.78523776.53003549 1.80604685.53003549 3.06242727V49.3523625c0 1.02080908-.1374166 1.88457062-.41224982 2.5912846-.27483322.70671399-.68708304 1.2956423-1.23674948 1.76678496l-10.4829241 8.8339248h16.25442164c1.88457062 0 3.2587367.43188077 4.12249824 1.2956423.86376154.86376154 1.2956423 2.23792762 1.2956423 4.12249825V81.7434201c0 1.02080908-.1374166 1.88457062-.41224982 2.5912846-.27483322.70671399-.68708304 1.2956423-1.23674947 1.76678496l-15.31213632 12.72085172c-.3140951.3140951-.8048687.58892832-1.4723208.82449964-.6674521.23557133-1.39379703.353357-2.17903479.353357zm53.3569058-1.17785664c-.3140951.3140951-.8048687.58892832-1.4723208.82449964-.6674521.23557133-1.39379703.353357-2.17903479.353357h-17.3144926c-1.88457063 0-3.25873671-.43188077-4.12249825-1.2956423-.86376153-.86376154-1.2956423-2.23792762-1.2956423-4.12249825v-31.0954153c0-2.43423705.37298794-5.20220015 1.1189638-8.3038893.74597588-3.10168916 1.94346346-6.77267569 3.59246276-11.01295959l10.1295671-26.61956006c.23557133-.70671399.5300355-1.31527325.88339248-1.8256778.353357-.51040454.72634493-.96191625 1.11896381-1.35453513l.11778567-.11778567 15.07656499-12.60306604c.6281902-.54966644 1.37416608-.96191626 2.23792761-1.23674948.86376154-.27483321 1.84530874-.41224982 2.9446416-.41224982H861.885784c1.80604685 0 3.27836765.37298794 4.4169624 1.1189638 1.13859475.74597588 1.98272534 1.90420158 2.53239178 3.4746771l10.24735276 26.73734572c1.6489993 4.2402839 2.84648688 7.91127044 3.59246276 11.01295959.74597587 3.10168915 1.1189638 5.86965225 1.1189638 8.30388931v31.0954153c0 1.02080908-.1374166 1.88457062-.41224982 2.5912846-.27483322.70671399-.68708304 1.2956423-1.23674947 1.76678496l-15.31213632 12.72085172c-.3140951.3140951-.8048687.58892832-1.4723208.82449964-.6674521.23557133-1.39379703.353357-2.17903479.353357h-17.78563526c-1.9630944 0-3.41578426-.45151172-4.35806957-1.35453514-.94228531-.90302342-1.41342797-2.25755856-1.41342797-4.0636054V79.26992114h-3.29799859v2.47349895c0 1.02080908-.1374166 1.88457062-.41224982 2.5912846-.27483322.70671399-.68708304 1.2956423-1.23674947 1.76678496L819.3651593 98.82234138zm140.87165414-5.06478356c-2.43423706 2.04161818-5.5359262 3.59246276-9.30506746 4.65253373-3.76914124 1.06007098-8.20573459 1.59010647-13.30978003 1.59010647h-39.69376877c-1.88457062 0-3.2587367-.43188077-4.12249824-1.2956423-.86376153-.86376154-1.2956423-2.23792762-1.2956423-4.12249825V18.2569472c0-1.02080909.1374166-1.88457062.41224982-2.5912846.27483322-.706714.68708304-1.29564231 1.23674948-1.76678497l15.19435065-12.83863737c.39261888-.3140951.92265437-.56929738 1.59010647-.76560682.6674521-.19630944 1.39379702-.29446416 2.17903478-.29446416h39.69376877c10.28661465 0 17.88378998 2.08088006 22.79152598 6.2426402 4.907736 4.16176012 7.361604 10.48292409 7.361604 18.9634919v36.74912716c0 4.2402839-.6281902 7.95053232-1.88457062 11.13074525-1.25638042 3.18021293-3.10168915 5.83039037-5.53592621 7.95053232l-15.31213632 12.72085171z"/>
  <path fill="#efe9a5" fill-rule="nonzero" d="M554.11184397 25.91301536c.3140951-.70671398.64782115-1.21711853 1.00117814-1.53121363.353357-.3140951.76560682-.47114266 1.23674947-.47114266h2.9446416c.47114266 0 .88339248.15704755 1.23674948.47114266.35335699.3140951.68708304.82449965 1.00117814 1.53121363l5.5359262 17.90342093h-18.49234924l5.5359262-17.90342093zm-6.71378285 55.83040474V65.25342714h20.84806253V81.7434201c0 1.49195174.37298793 2.57165366 1.1189638 3.23910576.74597588.6674521 1.90420157 1.00117814 3.4746771 1.00117814h17.78563526c1.49195174 0 2.57165366-.33372605 3.23910576-1.00117814.6674521-.6674521 1.00117814-1.74715402 1.00117814-3.23910576V50.6480048c0-2.35571328-.37298793-5.06478355-1.1189638-8.12721082-.74597588-3.06242726-1.90420157-6.63525907-3.4746771-10.71849542L580.02469006 5.06495283c-.47114266-1.33490419-1.19748759-2.31645139-2.17903479-2.9446416-.9815472-.6281902-2.21829667-.94228531-3.71024841-.94228531h-31.68434362c-1.57047552 0-2.84648688.3140951-3.82803408.94228531-.9815472.62819021-1.70789213 1.60973741-2.17903478 2.9446416L526.1966416 31.80229856c-1.57047552 4.08323635-2.72870122 7.65606816-3.47467709 10.71849542-.74597587 3.06242727-1.1189638 5.77149754-1.1189638 8.12721082v31.0954153c0 1.49195174.33372604 2.57165366 1.00117814 3.23910576.6674521.6674521 1.74715401 1.00117814 3.23910576 1.00117814h17.3144926c1.49195175 0 2.57165367-.33372605 3.23910577-1.00117814.6674521-.6674521 1.00117814-1.74715402 1.00117814-3.23910576zm-15.78327898 17.07892128c-.3140951.3140951-.8048687.58892832-1.4723208.82449964-.6674521.23557133-1.39379702.353357-2.17903478.353357h-17.3144926c-1.88457063 0-3.25873671-.43188077-4.12249825-1.2956423-.86376153-.86376154-1.2956423-2.23792762-1.2956423-4.12249825v-31.0954153c0-2.43423705.37298793-5.20220015 1.1189638-8.3038893.74597588-3.10168916 1.94346346-6.77267569 3.59246276-11.01295959l10.1295671-26.61956006c.23557133-.70671399.53003549-1.31527325.88339248-1.8256778.353357-.51040454.72634493-.96191625 1.11896381-1.35453513l.11778566-.11778567 15.076565-12.60306604c.6281902-.54966644 1.37416608-.96191626 2.23792761-1.23674948.86376154-.27483321 1.84530874-.41224982 2.9446416-.41224982h31.68434362c1.80604685 0 3.27836765.37298794 4.4169624 1.1189638 1.13859475.74597588 1.98272534 1.90420158 2.53239177 3.4746771L591.3321138 31.3311559c1.6489993 4.2402839 2.84648688 7.91127044 3.59246275 11.01295959.74597588 3.10168915 1.11896381 5.86965225 1.11896381 8.30388931v31.0954153c0 1.02080908-.1374166 1.88457062-.41224982 2.5912846-.27483322.70671399-.68708304 1.2956423-1.23674947 1.76678496l-15.31213632 12.72085172c-.3140951.3140951-.8048687.58892832-1.4723208.82449964-.6674521.23557133-1.39379703.353357-2.17903479.353357H557.6454139c-1.9630944 0-3.41578426-.45151172-4.35806957-1.35453514-.94228531-.90302342-1.41342797-2.25755856-1.41342797-4.0636054V79.26992114h-3.29799859v2.47349895c0 1.02080908-.1374166 1.88457062-.41224982 2.5912846-.27483322.70671399-.68708304 1.2956423-1.23674948 1.76678496l-15.31213632 12.72085172zM643.6289486 85.983704c1.49195175 0 2.57165367-.33372605 3.23910577-1.00117814.6674521-.6674521 1.00117814-1.74715402 1.00117814-3.23910576V55.59500269h19.67020589v26.1484174c0 1.49195175.33372605 2.57165367 1.00117814 3.23910577.6674521.6674521 1.74715402 1.00117814 3.23910576 1.00117814h18.25677792c1.49195175 0 2.57165367-.33372605 3.23910576-1.00117814.6674521-.6674521 1.00117815-1.74715402 1.00117815-3.23910576V5.41830982c0-1.49195174-.33372605-2.57165366-1.00117815-3.23910576-.6674521-.6674521-1.74715401-1.00117814-3.23910576-1.00117814H671.7797223c-1.49195174 0-2.57165366.33372605-3.23910576 1.00117814-.6674521.6674521-1.00117814 1.74715402-1.00117814 3.23910576v25.5594891h-19.67020589V5.41830981c0-1.49195174-.33372605-2.57165366-1.00117814-3.23910576-.6674521-.6674521-1.74715402-1.00117814-3.23910576-1.00117814h-18.25677792c-1.49195175 0-2.57165367.33372605-3.23910576 1.00117814-.6674521.6674521-1.00117815 1.74715402-1.00117815 3.23910576V81.7434201c0 1.49195174.33372605 2.57165366 1.00117815 3.23910576.6674521.6674521 1.74715401 1.00117814 3.23910576 1.00117814h18.25677792zm3.76914126.11778566l-15.31213632 12.72085172c-.3140951.3140951-.8048687.58892832-1.4723208.82449964-.6674521.23557133-1.39379703.353357-2.17903479.353357h-18.25677792c-1.88457062 0-3.2587367-.43188077-4.12249824-1.2956423-.86376153-.86376154-1.2956423-2.23792762-1.2956423-4.12249825V18.2569472c0-1.02080909.1374166-1.88457062.41224982-2.5912846.27483322-.706714.68708304-1.29564231 1.23674947-1.76678497l15.19435066-12.83863737c.39261888-.3140951.92265437-.56929738 1.59010646-.76560682.6674521-.19630944 1.39379703-.29446416 2.17903479-.29446416h18.25677792c1.88457062 0 3.2587367.43188077 4.12249824 1.2956423.86376153.86376154 1.2956423 2.23792762 1.2956423 4.12249824v24.38163245h2.12014195V18.2569472c0-1.02080909.13741661-1.88457062.41224983-2.5912846.27483321-.706714.68708304-1.29564231 1.23674947-1.76678497l15.19435066-12.83863737c.39261888-.3140951.92265436-.56929738 1.59010646-.76560682.6674521-.19630944 1.39379702-.29446416 2.17903478-.29446416h18.25677792c1.88457063 0 3.2587367.43188077 4.12249824 1.2956423.86376154.86376154 1.2956423 2.23792762 1.2956423 4.12249824V81.7434201c0 1.02080908-.1374166 1.88457062-.41224982 2.5912846-.27483321.70671399-.68708304 1.2956423-1.23674947 1.76678496l-15.31213632 12.72085172c-.3140951.3140951-.8048687.58892832-1.4723208.82449964-.6674521.23557133-1.39379702.353357-2.17903478.353357h-18.25677792c-1.88457063 0-3.2587367-.43188077-4.12249824-1.2956423-.86376154-.86376154-1.2956423-2.23792762-1.2956423-4.12249825V69.6114967h-2.12014196v12.1319234c0 1.02080908-.1374166 1.88457062-.41224982 2.5912846-.27483322.70671399-.68708304 1.2956423-1.23674947 1.76678496zm118.61016364 13.89870836h-54.6525481c-1.88457062 0-3.2587367-.43188077-4.12249823-1.2956423-.86376154-.86376154-1.2956423-2.23792762-1.2956423-4.12249825V18.2569472c0-1.02080909.1374166-1.88457062.41224982-2.5912846.27483321-.706714.68708304-1.29564231 1.23674947-1.76678497l15.19435066-12.83863737c.39261888-.3140951.92265436-.56929738 1.59010646-.76560682.6674521-.19630944 1.39379702-.29446416 2.17903478-.29446416h54.6525481c1.88457062 0 3.2587367.43188077 4.12249824 1.2956423.86376154.86376154 1.2956423 2.23792762 1.2956423 4.12249824v13.7809227c0 1.02080908-.1374166 1.88457062-.41224982 2.5912846-.27483322.70671398-.68708304 1.2956423-1.23674947 1.76678496l-10.1295671 8.36278214c.78523775.39261888 1.35453513.9815472 1.70789212 1.76678496.353357.78523776.53003549 1.80604685.53003549 3.06242727V49.3523625c0 1.02080908-.1374166 1.88457062-.41224982 2.5912846-.27483322.70671399-.68708304 1.2956423-1.23674948 1.76678496l-10.4829241 8.8339248h16.25442164c1.88457062 0 3.2587367.43188077 4.12249824 1.2956423.86376154.86376154 1.2956423 2.23792762 1.2956423 4.12249825V81.7434201c0 1.02080908-.1374166 1.88457062-.41224982 2.5912846-.27483322.70671399-.68708304 1.2956423-1.23674947 1.76678496l-15.31213632 12.72085172c-.3140951.3140951-.8048687.58892832-1.4723208.82449964-.6674521.23557133-1.39379703.353357-2.17903479.353357zM781.20260416 85.983704c1.49195174 0 2.57165366-.33372605 3.23910576-1.00117814.6674521-.6674521 1.00117814-1.74715402 1.00117814-3.23910576V67.9624974c0-1.49195174-.33372604-2.57165366-1.00117814-3.23910575-.6674521-.6674521-1.74715402-1.00117815-3.23910576-1.00117815H748.6937609V53.5926464h22.96820448c1.49195174 0 2.57165366-.33372605 3.23910576-1.00117814.6674521-.6674521 1.00117814-1.74715402 1.00117814-3.23910576V36.74929645c0-1.49195175-.33372605-2.57165367-1.00117814-3.23910576-.6674521-.6674521-1.74715402-1.00117815-3.23910576-1.00117815H748.6937609v-9.06949612h32.50884326c1.49195174 0 2.57165366-.33372605 3.23910576-1.00117815.6674521-.6674521 1.00117814-1.74715401 1.00117814-3.23910576V5.41830982c0-1.49195174-.33372604-2.57165366-1.00117814-3.23910576-.6674521-.6674521-1.74715402-1.00117814-3.23910576-1.00117814h-54.6525481c-1.49195174 0-2.57165366.33372605-3.23910576 1.00117814-.6674521.6674521-1.00117814 1.74715402-1.00117814 3.23910576V81.7434201c0 1.49195174.33372605 2.57165366 1.00117814 3.23910576.6674521.6674521 1.74715402 1.00117814 3.23910576 1.00117814h54.6525481zm60.65961696-60.07068864c.3140951-.70671398.64782115-1.21711853 1.00117814-1.53121363.353357-.3140951.76560682-.47114266 1.23674948-.47114266h2.9446416c.47114265 0 .88339248.15704755 1.23674947.47114266.35335699.3140951.68708304.82449965 1.00117814 1.53121363l5.53592621 17.90342093h-18.49234925l5.53592621-17.90342093zm-6.71378285 55.83040474V65.25342714h20.84806253V81.7434201c0 1.49195174.37298794 2.57165366 1.1189638 3.23910576.74597588.6674521 1.90420158 1.00117814 3.4746771 1.00117814h17.78563526c1.49195174 0 2.57165366-.33372605 3.23910576-1.00117814.6674521-.6674521 1.00117814-1.74715402 1.00117814-3.23910576V50.6480048c0-2.35571328-.37298793-5.06478355-1.1189638-8.12721082-.74597588-3.06242726-1.90420157-6.63525907-3.4746771-10.71849542L867.7750672 5.06495283c-.47114266-1.33490419-1.19748758-2.31645139-2.17903478-2.9446416-.9815472-.6281902-2.21829668-.94228531-3.71024842-.94228531h-31.68434362c-1.57047552 0-2.84648688.3140951-3.82803408.94228531-.9815472.62819021-1.70789212 1.60973741-2.17903478 2.9446416l-10.24735277 26.73734573c-1.57047552 4.08323635-2.72870121 7.65606816-3.47467709 10.71849542-.74597587 3.06242727-1.1189638 5.77149754-1.1189638 8.12721082v31.0954153c0 1.49195174.33372604 2.57165366 1.00117814 3.23910576.6674521.6674521 1.74715402 1.00117814 3.23910576 1.00117814h17.3144926c1.49195175 0 2.57165367-.33372605 3.23910577-1.00117814.6674521-.6674521 1.00117814-1.74715402 1.00117814-3.23910576zM819.3651593 98.82234138c-.3140951.3140951-.8048687.58892832-1.4723208.82449964-.6674521.23557133-1.39379703.353357-2.17903479.353357h-17.3144926c-1.88457063 0-3.25873671-.43188077-4.12249825-1.2956423-.86376153-.86376154-1.2956423-2.23792762-1.2956423-4.12249825v-31.0954153c0-2.43423705.37298794-5.20220015 1.1189638-8.3038893.74597588-3.10168916 1.94346346-6.77267569 3.59246276-11.01295959l10.1295671-26.61956006c.23557133-.70671399.5300355-1.31527325.88339248-1.8256778.353357-.51040454.72634493-.96191625 1.11896381-1.35453513l.11778567-.11778567 15.07656499-12.60306604c.6281902-.54966644 1.37416608-.96191626 2.23792761-1.23674948.86376154-.27483321 1.84530874-.41224982 2.9446416-.41224982H861.885784c1.80604685 0 3.27836765.37298794 4.4169624 1.1189638 1.13859475.74597588 1.98272534 1.90420158 2.53239178 3.4746771l10.24735276 26.73734572c1.6489993 4.2402839 2.84648688 7.91127044 3.59246276 11.01295959.74597587 3.10168915 1.1189638 5.86965225 1.1189638 8.30388931v31.0954153c0 1.02080908-.1374166 1.88457062-.41224982 2.5912846-.27483322.70671399-.68708304 1.2956423-1.23674947 1.76678496l-15.31213632 12.72085172c-.3140951.3140951-.8048687.58892832-1.4723208.82449964-.6674521.23557133-1.39379703.353357-2.17903479.353357h-17.78563526c-1.9630944 0-3.41578426-.45151172-4.35806957-1.35453514-.94228531-.90302342-1.41342797-2.25755856-1.41342797-4.0636054V79.26992114h-3.29799859v2.47349895c0 1.02080908-.1374166 1.88457062-.41224982 2.5912846-.27483322.70671399-.68708304 1.2956423-1.23674947 1.76678496L819.3651593 98.82234138zm140.87165414-5.06478356c-2.43423706 2.04161818-5.5359262 3.59246276-9.30506746 4.65253373-3.76914124 1.06007098-8.20573459 1.59010647-13.30978003 1.59010647h-39.69376877c-1.88457062 0-3.2587367-.43188077-4.12249824-1.2956423-.86376153-.86376154-1.2956423-2.23792762-1.2956423-4.12249825V18.2569472c0-1.02080909.1374166-1.88457062.41224982-2.5912846.27483322-.706714.68708304-1.29564231 1.23674948-1.76678497l15.19435065-12.83863737c.39261888-.3140951.92265437-.56929738 1.59010647-.76560682.6674521-.19630944 1.39379702-.29446416 2.17903478-.29446416h39.69376877c10.28661465 0 17.88378998 2.08088006 22.79152598 6.2426402 4.907736 4.16176012 7.361604 10.48292409 7.361604 18.9634919v36.74912716c0 4.2402839-.6281902 7.95053232-1.88457062 11.13074525-1.25638042 3.18021293-3.10168915 5.83039037-5.53592621 7.95053232l-15.31213632 12.72085171zm-7.42049683-7.77385382c9.815472 0 17.09855222-1.9630944 21.84924067-5.8892832 4.75068845-3.9261888 7.12603267-9.97251955 7.12603267-18.13899226V25.20630138c0-8.1664727-2.37534422-14.21280346-7.12603267-18.13899226-4.75068845-3.9261888-12.03376867-5.8892832-21.84924067-5.8892832h-39.69376877c-1.49195174 0-2.57165366.33372605-3.23910576 1.00117814-.6674521.6674521-1.00117814 1.74715402-1.00117814 3.23910576V81.7434201c0 1.49195174.33372604 2.57165366 1.00117814 3.23910576.6674521.6674521 1.74715402 1.00117814 3.23910576 1.00117814h39.69376877zm-17.19670695-62.30861626h14.01649402c1.88457062 0 3.27836765.45151172 4.18139107 1.35453514.90302343.90302342 1.35453514 2.33608234 1.35453514 4.29917674v28.62191635c0 1.9630944-.45151171 3.41578425-1.35453514 4.35806957-.90302342.9422853-2.29682045 1.41342796-4.18139107 1.41342796-4.63535665.28137687-9.27234922.55621008-14.01649402 0V23.67508774z"/>
  <g fill-rule="nonzero">
    <path fill="#55a193" d="M5.4180752 100.00049402c-1.88457062 0-3.2587367-.43188077-4.12249824-1.2956423-.86376154-.86376154-1.2956423-2.23792762-1.2956423-4.12249825V80.80143078c0-1.02080908.1374166-1.88457062.41224982-2.5912846.27483322-.70671399.68708304-1.2956423 1.23674947-1.76678496l11.7785664-9.89399578c-4.16176013-1.25638042-7.44012777-3.39615331-9.83510294-6.41931869-2.39497517-3.02316537-3.59246275-7.361604-3.59246275-13.01531587V34.74723616c0-3.53356992.58892832-6.67452096 1.76678496-9.42285312 1.17785664-2.74833216 2.86611782-5.06478355 5.06478355-6.94935418L22.14363949 5.5363915c2.12014195-1.72752307 4.75068845-3.08205821 7.89163949-4.06360541C33.17623002.49123888 36.74906182.00046528 40.7537744.00046528h32.97998592c1.88457062 0 3.2587367.43188077 4.12249824 1.2956423.86376154.86376154 1.2956423 2.23792762 1.2956423 4.12249824v14.01649402c0 1.02080909-.1374166 1.88457062-.41224982 2.5912846-.27483322.706714-.68708304 1.29564231-1.23674947 1.76678497L66.9021918 32.6270942c4.94699789 1.09933286 8.93207952 3.16058198 11.9552449 6.18374736 3.02316537 3.02316537 4.53474806 7.71496099 4.53474806 14.07538685v12.36749472c0 3.53356992-.58892832 6.67452096-1.76678496 9.42285312-1.17785664 2.74833216-2.90537971 5.06478355-5.18256922 6.94935417L61.24847994 94.34678214c-2.19866573 1.80604685-4.86847412 3.19984388-8.00942516 4.18139108-3.14095104.9815472-6.67452096 1.4723208-10.60070976 1.4723208H5.4180752zm127.67965978-13.89870836l-15.31213632 12.72085172c-.3140951.3140951-.8048687.58892832-1.4723208.82449964-.6674521.23557133-1.39379703.353357-2.17903479.353357H95.87746515c-1.88457062 0-3.2587367-.43188077-4.12249824-1.2956423-.86376153-.86376154-1.2956423-2.23792762-1.2956423-4.12249825V18.2572432c0-1.02080909.1374166-1.88457062.41224982-2.5912846.27483322-.706714.68708304-1.29564231 1.23674947-1.76678497l15.19435066-12.83863737c.39261888-.3140951.92265437-.56929738 1.59010646-.76560682.6674521-.19630944 1.39379703-.29446416 2.17903479-.29446416h18.25677792c1.88457062 0 3.2587367.43188077 4.12249824 1.2956423.86376153.86376154 1.2956423 2.23792762 1.2956423 4.12249824v24.38163245h2.12014195V18.2572432c0-1.02080909.13741661-1.88457062.41224983-2.5912846.27483321-.706714.68708304-1.29564231 1.23674947-1.76678497l15.19435066-12.83863737c.39261888-.3140951.92265436-.56929738 1.59010646-.76560682.6674521-.19630944 1.39379702-.29446416 2.17903478-.29446416h18.25677792c1.88457063 0 3.2587367.43188077 4.12249824 1.2956423.86376154.86376154 1.2956423 2.23792762 1.2956423 4.12249824V81.7437161c0 1.02080908-.1374166 1.88457062-.41224982 2.5912846-.27483321.70671399-.68708304 1.2956423-1.23674947 1.76678496l-15.31213632 12.72085172c-.3140951.3140951-.8048687.58892832-1.4723208.82449964-.6674521.23557133-1.39379702.353357-2.17903478.353357h-18.25677792c-1.88457063 0-3.2587367-.43188077-4.12249824-1.2956423-.86376154-.86376154-1.2956423-2.23792762-1.2956423-4.12249825V69.6117927h-2.12014196v12.1319234c0 1.02080908-.1374166 1.88457062-.41224982 2.5912846-.27483322.70671399-.68708304 1.2956423-1.23674947 1.76678496zm101.06009971 0l-15.31213632 12.72085172c-.3140951.3140951-.8048687.58892832-1.4723208.82449964-.6674521.23557133-1.39379703.353357-2.17903479.353357h-18.13899225c-1.88457063 0-3.2587367-.43188077-4.12249824-1.2956423-.86376154-.86376154-1.2956423-2.23792762-1.2956423-4.12249825V18.2572432c0-1.02080909.1374166-1.88457062.41224982-2.5912846.27483321-.706714.68708304-1.29564231 1.23674947-1.76678497l15.19435066-12.83863737c.39261888-.3140951.92265436-.56929738 1.59010646-.76560682.6674521-.19630944 1.39379702-.29446416 2.17903478-.29446416h39.22262612c9.34432934 0 15.74401708 1.94346346 19.19906323 5.83039037 3.45504614 3.88692691 5.18256921 8.89281763 5.18256921 15.01767216v5.41814054c0 2.90537971-.35335699 5.43777149-1.06007097 7.59717533-.70671399 2.15940384-1.84530874 3.90655786-3.41578426 5.24146205h-.11778566c3.69061747 1.02080909 6.65489001 3.06242726 8.89281763 6.12485453 2.23792762 3.06242726 3.35689142 6.91009228 3.35689142 11.54299507V81.7437161c0 1.02080908-.1374166 1.88457062-.41224982 2.5912846-.27483322.70671399-.68708304 1.2956423-1.23674947 1.76678496l-15.31213632 12.72085172c-.3140951.3140951-.8048687.58892832-1.4723208.82449964-.6674521.23557133-1.39379703.353357-2.17903479.353357h-18.25677792c-1.88457062 0-3.2587367-.43188077-4.12249824-1.2956423-.86376153-.86376154-1.2956423-2.23792762-1.2956423-4.12249825V76.56114688c0-1.25638042-.23557133-2.21829667-.70671398-2.88574877-.47114266-.6674521-1.3349042-1.00117814-2.59128461-1.00117814h-.11778567v9.06949613c0 1.02080908-.1374166 1.88457062-.41224982 2.5912846-.27483322.70671399-.68708304 1.2956423-1.23674947 1.76678496zm116.84337869 13.89870836h-54.6525481c-1.88457062 0-3.2587367-.43188077-4.12249824-1.2956423-.86376154-.86376154-1.2956423-2.23792762-1.2956423-4.12249825V18.2572432c0-1.02080909.1374166-1.88457062.41224982-2.5912846.27483322-.706714.68708304-1.29564231 1.23674947-1.76678497L307.7738747 1.06053626c.39261888-.3140951.92265437-.56929738 1.59010646-.76560682.6674521-.19630944 1.39379703-.29446416 2.17903479-.29446416h54.6525481c1.88457062 0 3.2587367.43188077 4.12249823 1.2956423.86376154.86376154 1.2956423 2.23792762 1.2956423 4.12249824v13.7809227c0 1.02080908-.1374166 1.88457062-.41224982 2.5912846-.27483321.70671398-.68708304 1.2956423-1.23674947 1.76678496l-10.1295671 8.36278214c.78523776.39261888 1.35453513.9815472 1.70789212 1.76678496.353357.78523776.5300355 1.80604685.5300355 3.06242727V49.3526585c0 1.02080908-.13741662 1.88457062-.41224983 2.5912846-.27483322.70671399-.68708304 1.2956423-1.23674947 1.76678496l-10.4829241 8.8339248h16.25442163c1.88457063 0 3.2587367.43188077 4.12249824 1.2956423.86376154.86376154 1.2956423 2.23792762 1.2956423 4.12249825V81.7437161c0 1.02080908-.1374166 1.88457062-.41224982 2.5912846-.27483321.70671399-.68708304 1.2956423-1.23674947 1.76678496l-15.31213632 12.72085172c-.3140951.3140951-.8048687.58892832-1.4723208.82449964-.6674521.23557133-1.39379702.353357-2.17903478.353357zm96.46645882-6.2426402c-2.43423706 2.04161818-5.53592622 3.59246276-9.30506746 4.65253373-3.76914125 1.06007098-8.2057346 1.59010647-13.30978004 1.59010647h-39.69376876c-1.88457063 0-3.2587367-.43188077-4.12249824-1.2956423-.86376154-.86376154-1.2956423-2.23792762-1.2956423-4.12249825V18.2572432c0-1.02080909.1374166-1.88457062.41224982-2.5912846.27483321-.706714.68708304-1.29564231 1.23674947-1.76678497l15.19435065-12.83863737c.39261888-.3140951.92265437-.56929738 1.59010647-.76560682.6674521-.19630944 1.39379702-.29446416 2.17903478-.29446416h39.69376877c10.28661466 0 17.88378998 2.08088006 22.79152598 6.2426402 4.907736 4.16176012 7.361604 10.48292409 7.361604 18.9634919v36.74912716c0 4.2402839-.6281902 7.95053232-1.88457062 11.13074525-1.25638042 3.18021293-3.10168915 5.83039037-5.5359262 7.95053232l-15.31213633 12.72085171z"/>
    <path fill="#efe9a5" d="M5.4180752 100.00049402c-1.88457062 0-3.2587367-.43188077-4.12249824-1.2956423-.86376154-.86376154-1.2956423-2.23792762-1.2956423-4.12249825V80.80143078c0-1.02080908.1374166-1.88457062.41224982-2.5912846.27483322-.70671399.68708304-1.2956423 1.23674947-1.76678496l11.7785664-9.89399578c-4.16176013-1.25638042-7.44012777-3.39615331-9.83510294-6.41931869-2.39497517-3.02316537-3.59246275-7.361604-3.59246275-13.01531587V34.74723616c0-3.53356992.58892832-6.67452096 1.76678496-9.42285312 1.17785664-2.74833216 2.86611782-5.06478355 5.06478355-6.94935418L22.14363949 5.5363915c2.12014195-1.72752307 4.75068845-3.08205821 7.89163949-4.06360541C33.17623002.49123888 36.74906182.00046528 40.7537744.00046528h32.97998592c1.88457062 0 3.2587367.43188077 4.12249824 1.2956423.86376154.86376154 1.2956423 2.23792762 1.2956423 4.12249824v14.01649402c0 1.02080909-.1374166 1.88457062-.41224982 2.5912846-.27483322.706714-.68708304 1.29564231-1.23674947 1.76678497L66.9021918 32.6270942c4.94699789 1.09933286 8.93207952 3.16058198 11.9552449 6.18374736 3.02316537 3.02316537 4.53474806 7.71496099 4.53474806 14.07538685v12.36749472c0 3.53356992-.58892832 6.67452096-1.76678496 9.42285312-1.17785664 2.74833216-2.90537971 5.06478355-5.18256922 6.94935417L61.24847994 94.34678214c-2.19866573 1.80604685-4.86847412 3.19984388-8.00942516 4.18139108-3.14095104.9815472-6.67452096 1.4723208-10.60070976 1.4723208H5.4180752zM57.83269568 85.984c7.5382825 0 13.48645853-1.7864159 17.8445281-5.35924771 4.35806956-3.57283181 6.53710435-8.6965082 6.53710435-15.37102915V52.88622842c0-6.59599719-1.68826119-11.30742375-5.06478355-14.13427968-3.37652237-2.82685594-7.81311572-4.63290279-13.30978004-5.41814055l-17.55006393-2.35571328c-1.02080909-.07852377-1.80604685-.47114265-2.35571328-1.17785664-.54966643-.70671398-.82449965-1.57047552-.82449965-2.5912846 0-1.0208091.27483322-1.86493969.82449965-2.53239178.54966643-.6674521 1.33490419-1.00117815 2.35571328-1.00117815h27.44405971c1.49195174 0 2.57165366-.33372604 3.23910576-1.00117814.6674521-.6674521 1.00117814-1.74715402 1.00117814-3.23910576V5.41860582c0-1.49195174-.33372604-2.57165366-1.00117814-3.23910576-.6674521-.6674521-1.74715402-1.00117814-3.23910576-1.00117814H40.7537744c-7.61680627 0-13.58461325 1.7864159-17.90342093 5.35924771-4.31880768 3.57283181-6.47821152 8.6965082-6.47821152 15.37102915V34.2760935c0 6.59599719 1.66863024 11.30742375 5.00589072 14.13427968 3.33726048 2.82685594 7.75422288 4.63290279 13.2508872 5.41814055l17.6678496 2.47349894c1.02080909.07852378 1.7864159.43188077 2.29682045 1.06007098.51040454.6281902.76560682 1.6097374.76560682 2.9446416 0 .94228531-.25520228 1.74715401-.76560682 2.41460611-.51040454.6674521-1.27601136 1.00117814-2.29682045 1.00117814H20.61242586c-1.49195175 0-2.57165367.33372605-3.23910576 1.00117815-.6674521.6674521-1.00117815 1.74715401-1.00117815 3.23910576V81.7437161c0 1.49195174.33372605 2.57165366 1.00117815 3.23910576.6674521.6674521 1.74715401 1.00117814 3.23910576 1.00117814h37.22026982zm71.49589805 0c1.49195174 0 2.57165366-.33372605 3.23910576-1.00117814.6674521-.6674521 1.00117814-1.74715402 1.00117814-3.23910576V55.59529869h19.67020589v26.1484174c0 1.49195175.33372605 2.57165367 1.00117814 3.23910577.6674521.6674521 1.74715402 1.00117814 3.23910576 1.00117814h18.25677792c1.49195175 0 2.57165367-.33372605 3.23910576-1.00117814.6674521-.6674521 1.00117815-1.74715402 1.00117815-3.23910576V5.41860582c0-1.49195174-.33372605-2.57165366-1.00117815-3.23910576-.6674521-.6674521-1.74715401-1.00117814-3.23910576-1.00117814h-18.25677792c-1.49195174 0-2.57165366.33372605-3.23910576 1.00117814-.6674521.6674521-1.00117814 1.74715402-1.00117814 3.23910576v25.5594891h-19.67020589V5.41860581c0-1.49195174-.33372605-2.57165366-1.00117814-3.23910576-.6674521-.6674521-1.74715402-1.00117814-3.23910576-1.00117814H111.0718158c-1.49195175 0-2.57165367.33372605-3.23910576 1.00117814-.6674521.6674521-1.00117815 1.74715402-1.00117815 3.23910576V81.7437161c0 1.49195174.33372605 2.57165366 1.00117815 3.23910576.6674521.6674521 1.74715401 1.00117814 3.23910576 1.00117814h18.25677792zm3.76914125.11778566l-15.31213632 12.72085172c-.3140951.3140951-.8048687.58892832-1.4723208.82449964-.6674521.23557133-1.39379703.353357-2.17903479.353357H95.87746515c-1.88457062 0-3.2587367-.43188077-4.12249824-1.2956423-.86376153-.86376154-1.2956423-2.23792762-1.2956423-4.12249825V18.2572432c0-1.02080909.1374166-1.88457062.41224982-2.5912846.27483322-.706714.68708304-1.29564231 1.23674947-1.76678497l15.19435066-12.83863737c.39261888-.3140951.92265437-.56929738 1.59010646-.76560682.6674521-.19630944 1.39379703-.29446416 2.17903479-.29446416h18.25677792c1.88457062 0 3.2587367.43188077 4.12249824 1.2956423.86376153.86376154 1.2956423 2.23792762 1.2956423 4.12249824v24.38163245h2.12014195V18.2572432c0-1.02080909.13741661-1.88457062.41224983-2.5912846.27483321-.706714.68708304-1.29564231 1.23674947-1.76678497l15.19435066-12.83863737c.39261888-.3140951.92265436-.56929738 1.59010646-.76560682.6674521-.19630944 1.39379702-.29446416 2.17903478-.29446416h18.25677792c1.88457063 0 3.2587367.43188077 4.12249824 1.2956423.86376154.86376154 1.2956423 2.23792762 1.2956423 4.12249824V81.7437161c0 1.02080908-.1374166 1.88457062-.41224982 2.5912846-.27483321.70671399-.68708304 1.2956423-1.23674947 1.76678496l-15.31213632 12.72085172c-.3140951.3140951-.8048687.58892832-1.4723208.82449964-.6674521.23557133-1.39379702.353357-2.17903478.353357h-18.25677792c-1.88457063 0-3.2587367-.43188077-4.12249824-1.2956423-.86376154-.86376154-1.2956423-2.23792762-1.2956423-4.12249825V69.6117927h-2.12014196v12.1319234c0 1.02080908-.1374166 1.88457062-.41224982 2.5912846-.27483322.70671399-.68708304 1.2956423-1.23674947 1.76678496zm101.53124236-63.72204422h8.8339248c2.04161818 0 3.41578426.53003549 4.12249824 1.59010646.70671399 1.06007098 1.06007098 2.37534423 1.06007098 3.94581975v4.00471257c0 1.57047552-.353357 2.88574877-1.06007098 3.94581975-.70671398 1.06007097-2.08088006 1.59010646-4.12249824 1.59010646h-8.8339248V22.37974144zM230.38869344 85.984c1.49195174 0 2.57165366-.33372605 3.23910576-1.00117814.6674521-.6674521 1.00117814-1.74715402 1.00117814-3.23910576V58.65772595h16.48999296c1.6489993 0 2.807225.41224983 3.4746771 1.23674947.66745209.82449965 1.00117814 2.10051101 1.00117814 3.82803408v18.0212066c0 1.49195174.33372604 2.57165366 1.00117814 3.23910576.6674521.6674521 1.74715402 1.00117814 3.23910576 1.00117814h18.25677792c1.49195174 0 2.57165366-.33372605 3.23910576-1.00117814.6674521-.6674521 1.00117814-1.74715402 1.00117814-3.23910576V56.77315533c0-4.94699789-1.31527324-8.91244858-3.94581974-11.89635207-2.6305465-2.98390348-6.0659617-4.71142656-10.3062456-5.18256921 2.43423706-1.02080909 4.14212918-2.68943933 5.12367638-5.00589072.9815472-2.3164514 1.4723208-5.12367639 1.4723208-8.42167498v-5.41814054c0-5.81075943-1.66863024-10.54181693-5.00589072-14.19317251-3.33726048-3.65135559-9.40322217-5.47703338-18.19788508-5.47703338h-39.22262612c-1.49195174 0-2.57165366.33372605-3.23910576 1.00117814-.6674521.6674521-1.00117814 1.74715402-1.00117814 3.23910576V81.7437161c0 1.49195174.33372605 2.57165366 1.00117814 3.23910576.6674521.6674521 1.74715402 1.00117814 3.23910576 1.00117814h18.13899226zm3.76914125.11778566l-15.31213632 12.72085172c-.3140951.3140951-.8048687.58892832-1.4723208.82449964-.6674521.23557133-1.39379703.353357-2.17903479.353357h-18.13899225c-1.88457063 0-3.2587367-.43188077-4.12249824-1.2956423-.86376154-.86376154-1.2956423-2.23792762-1.2956423-4.12249825V18.2572432c0-1.02080909.1374166-1.88457062.41224982-2.5912846.27483321-.706714.68708304-1.29564231 1.23674947-1.76678497l15.19435066-12.83863737c.39261888-.3140951.92265436-.56929738 1.59010646-.76560682.6674521-.19630944 1.39379702-.29446416 2.17903478-.29446416h39.22262612c9.34432934 0 15.74401708 1.94346346 19.19906323 5.83039037 3.45504614 3.88692691 5.18256921 8.89281763 5.18256921 15.01767216v5.41814054c0 2.90537971-.35335699 5.43777149-1.06007097 7.59717533-.70671399 2.15940384-1.84530874 3.90655786-3.41578426 5.24146205h-.11778566c3.69061747 1.02080909 6.65489001 3.06242726 8.89281763 6.12485453 2.23792762 3.06242726 3.35689142 6.91009228 3.35689142 11.54299507V81.7437161c0 1.02080908-.1374166 1.88457062-.41224982 2.5912846-.27483322.70671399-.68708304 1.2956423-1.23674947 1.76678496l-15.31213632 12.72085172c-.3140951.3140951-.8048687.58892832-1.4723208.82449964-.6674521.23557133-1.39379703.353357-2.17903479.353357h-18.25677792c-1.88457062 0-3.2587367-.43188077-4.12249824-1.2956423-.86376153-.86376154-1.2956423-2.23792762-1.2956423-4.12249825V76.56114688c0-1.25638042-.23557133-2.21829667-.70671398-2.88574877-.47114266-.6674521-1.3349042-1.00117814-2.59128461-1.00117814h-.11778567v9.06949613c0 1.02080908-.1374166 1.88457062-.41224982 2.5912846-.27483322.70671399-.68708304 1.2956423-1.23674947 1.76678496zm116.84337869 13.89870836h-54.6525481c-1.88457062 0-3.2587367-.43188077-4.12249824-1.2956423-.86376154-.86376154-1.2956423-2.23792762-1.2956423-4.12249825V18.2572432c0-1.02080909.1374166-1.88457062.41224982-2.5912846.27483322-.706714.68708304-1.29564231 1.23674947-1.76678497L307.7738747 1.06053626c.39261888-.3140951.92265437-.56929738 1.59010646-.76560682.6674521-.19630944 1.39379703-.29446416 2.17903479-.29446416h54.6525481c1.88457062 0 3.2587367.43188077 4.12249823 1.2956423.86376154.86376154 1.2956423 2.23792762 1.2956423 4.12249824v13.7809227c0 1.02080908-.1374166 1.88457062-.41224982 2.5912846-.27483321.70671398-.68708304 1.2956423-1.23674947 1.76678496l-10.1295671 8.36278214c.78523776.39261888 1.35453513.9815472 1.70789212 1.76678496.353357.78523776.5300355 1.80604685.5300355 3.06242727V49.3526585c0 1.02080908-.13741662 1.88457062-.41224983 2.5912846-.27483322.70671399-.68708304 1.2956423-1.23674947 1.76678496l-10.4829241 8.8339248h16.25442163c1.88457063 0 3.2587367.43188077 4.12249824 1.2956423.86376154.86376154 1.2956423 2.23792762 1.2956423 4.12249825V81.7437161c0 1.02080908-.1374166 1.88457062-.41224982 2.5912846-.27483321.70671399-.68708304 1.2956423-1.23674947 1.76678496l-15.31213632 12.72085172c-.3140951.3140951-.8048687.58892832-1.4723208.82449964-.6674521.23557133-1.39379702.353357-2.17903478.353357zM366.19556403 85.984c1.49195175 0 2.57165367-.33372605 3.23910576-1.00117814.6674521-.6674521 1.00117815-1.74715402 1.00117815-3.23910576V67.9627934c0-1.49195174-.33372605-2.57165366-1.00117815-3.23910575-.6674521-.6674521-1.74715401-1.00117815-3.23910576-1.00117815h-32.50884326V53.5929424h22.96820448c1.49195174 0 2.57165366-.33372605 3.23910576-1.00117814.6674521-.6674521 1.00117814-1.74715402 1.00117814-3.23910576V36.74959245c0-1.49195175-.33372605-2.57165367-1.00117814-3.23910576-.6674521-.6674521-1.74715402-1.00117815-3.23910576-1.00117815h-22.96820448v-9.06949612h32.50884326c1.49195175 0 2.57165367-.33372605 3.23910576-1.00117815.6674521-.6674521 1.00117815-1.74715401 1.00117815-3.23910576V5.41860582c0-1.49195174-.33372605-2.57165366-1.00117815-3.23910576-.6674521-.6674521-1.74715401-1.00117814-3.23910576-1.00117814h-54.6525481c-1.49195174 0-2.57165366.33372605-3.23910575 1.00117814-.6674521.6674521-1.00117815 1.74715402-1.00117815 3.23910576V81.7437161c0 1.49195174.33372605 2.57165366 1.00117815 3.23910576.6674521.6674521 1.74715401 1.00117814 3.23910576 1.00117814h54.6525481zm81.27210817 7.77385382c-2.43423706 2.04161818-5.53592622 3.59246276-9.30506746 4.65253373-3.76914125 1.06007098-8.2057346 1.59010647-13.30978004 1.59010647h-39.69376876c-1.88457063 0-3.2587367-.43188077-4.12249824-1.2956423-.86376154-.86376154-1.2956423-2.23792762-1.2956423-4.12249825V18.2572432c0-1.02080909.1374166-1.88457062.41224982-2.5912846.27483321-.706714.68708304-1.29564231 1.23674947-1.76678497l15.19435065-12.83863737c.39261888-.3140951.92265437-.56929738 1.59010647-.76560682.6674521-.19630944 1.39379702-.29446416 2.17903478-.29446416h39.69376877c10.28661466 0 17.88378998 2.08088006 22.79152598 6.2426402 4.907736 4.16176012 7.361604 10.48292409 7.361604 18.9634919v36.74912716c0 4.2402839-.6281902 7.95053232-1.88457062 11.13074525-1.25638042 3.18021293-3.10168915 5.83039037-5.5359262 7.95053232l-15.31213633 12.72085171zM440.04717535 85.984c9.815472 0 17.09855222-1.9630944 21.84924067-5.8892832 4.75068845-3.9261888 7.12603267-9.97251955 7.12603267-18.13899226V25.20659738c0-8.1664727-2.37534422-14.21280346-7.12603267-18.13899226-4.75068845-3.9261888-12.03376867-5.8892832-21.84924067-5.8892832h-39.69376877c-1.49195174 0-2.57165366.33372605-3.23910576 1.00117814-.6674521.6674521-1.00117814 1.74715402-1.00117814 3.23910576V81.7437161c0 1.49195174.33372605 2.57165366 1.00117814 3.23910576.6674521.6674521 1.74715402 1.00117814 3.23910576 1.00117814h39.69376877zm-17.19670694-62.30861626h14.01649401c1.88457063 0 3.27836765.45151172 4.18139107 1.35453514.90302343.90302342 1.35453514 2.33608234 1.35453514 4.29917674v28.62191635c0 1.9630944-.45151171 3.41578425-1.35453514 4.35806957-.90302342.9422853-2.29682044 1.41342796-4.18139107 1.41342796h-14.01649401V23.67538374z"/>
  </g>
</svg>
